<svg width="30" height="30" viewBox="0 0 30 30" fill="none" xmlns="http://www.w3.org/2000/svg">
<mask id="mask0_0_945" style="mask-type:luminance" maskUnits="userSpaceOnUse" x="6" y="2" width="18" height="26">
<path fill-rule="evenodd" clip-rule="evenodd" d="M15.349 20.8369C14.961 20.6236 14.4921 20.6274 14.1141 20.8531L9.43923 23.597L11.2703 16.4755C12.3617 17.0991 13.6227 17.4608 14.9673 17.4608C16.3119 17.4608 17.5729 17.0991 18.6655 16.4755L20.5228 23.6992L15.349 20.8369ZM14.9673 4.98878C17.7188 4.98878 19.9565 7.22625 19.9565 9.97757C19.9565 12.7289 17.7188 14.9664 14.9673 14.9664C12.2157 14.9664 9.97806 12.7289 9.97806 9.97757C9.97806 7.22625 12.2157 4.98878 14.9673 4.98878V4.98878ZM23.6597 25.8806L20.7797 14.682C21.8225 13.3949 22.4511 11.7598 22.4511 9.97757C22.4511 5.85059 19.0946 2.49438 14.9673 2.49438C10.8412 2.49438 7.48345 5.85059 7.48345 9.97757C7.48345 11.7598 8.11209 13.3949 9.15484 14.682L6.27606 25.8806C6.15008 26.3695 6.33094 26.8846 6.73382 27.1876C7.13545 27.4907 7.68177 27.5182 8.11459 27.2662L14.7627 23.3637L21.8474 27.2824C22.0357 27.3872 22.244 27.4383 22.4511 27.4383C22.7218 27.4383 22.9912 27.351 23.2157 27.1777C23.6086 26.8734 23.7845 26.3632 23.6597 25.8806V25.8806Z" fill="white"/>
</mask>
<g mask="url(#mask0_0_945)">
<rect width="29.9353" height="29.9327" fill="#FEF5D8"/>
</g>
</svg>
