<svg width="62" height="62" viewBox="0 0 62 62" fill="none" xmlns="http://www.w3.org/2000/svg">
<path d="M18.6202 18.4534H18.8545C21.7706 18.4534 24.5673 19.7717 26.6293 22.1183C28.6913 24.4649 29.8497 27.6475 29.8497 30.9661V54.0739C29.8497 54.6344 29.654 55.1721 29.3057 55.5684C28.9574 55.9648 28.485 56.1875 27.9924 56.1875H9.4823C8.98971 56.1875 8.5173 55.9648 8.16899 55.5684C7.82068 55.1721 7.625 54.6344 7.625 54.0739V30.9661C7.625 27.6475 8.78342 24.4649 10.8454 22.1183C12.9074 19.7717 15.7041 18.4534 18.6202 18.4534Z" stroke="#FF9140" stroke-width="2" stroke-linecap="round" stroke-linejoin="round"/>
<path d="M40.8448 18.4534H41.0791C43.9952 18.4534 46.7919 19.7717 48.8539 22.1183C50.9159 24.4649 52.0743 27.6475 52.0743 30.9661V54.0739C52.0743 54.6344 51.8786 55.1721 51.5303 55.5684C51.182 55.9648 50.7096 56.1875 50.217 56.1875H31.7069C31.2143 56.1875 30.7419 55.9648 30.3936 55.5684C30.0453 55.1721 29.8496 54.6344 29.8496 54.0739V30.9661C29.8496 27.6475 31.008 24.4649 33.07 22.1183C35.132 19.7717 37.9287 18.4534 40.8448 18.4534Z" stroke="#FF9140" stroke-width="2" stroke-linecap="round" stroke-linejoin="round"/>
<path d="M8.1252 27.2228H5.74229C5.49558 27.2238 5.25115 27.1692 5.02305 27.0622C4.79496 26.9552 4.58772 26.7979 4.41328 26.5994C4.23883 26.4009 4.10062 26.165 4.0066 25.9055C3.91259 25.6459 3.86463 25.3677 3.86549 25.087V11.8233C3.86463 11.5426 3.91259 11.2644 4.0066 11.0048C4.10062 10.7453 4.23883 10.5094 4.41327 10.3109C4.58772 10.1124 4.79496 9.9551 5.02305 9.84811C5.25114 9.74112 5.49558 9.68654 5.74228 9.68751H53.9576C54.2043 9.68654 54.4488 9.74111 54.6768 9.8481C54.9049 9.95509 55.1122 10.1124 55.2866 10.3109C55.4611 10.5094 55.5993 10.7453 55.6933 11.0048C55.7873 11.2644 55.8353 11.5426 55.8344 11.8233V25.087C55.8353 25.3677 55.7873 25.6459 55.6933 25.9055C55.5993 26.165 55.4611 26.4009 55.2866 26.5994C55.1122 26.7979 54.9049 26.9552 54.6768 27.0622C54.4488 27.1692 54.2043 27.2238 53.9576 27.2228H51.5737" stroke="#FF9140" stroke-width="2" stroke-linecap="round" stroke-linejoin="round"/>
<path d="M23.7249 34.094H13.7501C12.7244 34.094 11.8928 35.0403 11.8928 36.2076V42.2112C11.8928 43.3785 12.7244 44.3248 13.7501 44.3248H23.7249C24.7507 44.3248 25.5822 43.3785 25.5822 42.2112V36.2076C25.5822 35.0403 24.7507 34.094 23.7249 34.094Z" stroke="#FF9140" stroke-width="2" stroke-linecap="round" stroke-linejoin="round"/>
<path d="M45.9493 34.094H35.9745C34.9487 34.094 34.1172 35.0403 34.1172 36.2076V42.2112C34.1172 43.3785 34.9487 44.3248 35.9745 44.3248H45.9493C46.975 44.3248 47.8066 43.3785 47.8066 42.2112V36.2076C47.8066 35.0403 46.975 34.094 45.9493 34.094Z" stroke="#FF9140" stroke-width="2" stroke-linecap="round" stroke-linejoin="round"/>
<path d="M3.20898 39.2094H11.8926" stroke="#FF9140" stroke-width="2" stroke-linecap="round" stroke-linejoin="round"/>
<path d="M47.8064 39.2094H56.49" stroke="#FF9140" stroke-width="2" stroke-linecap="round" stroke-linejoin="round"/>
<path d="M25.582 39.2094H34.1173" stroke="#FF9140" stroke-width="2" stroke-linecap="round" stroke-linejoin="round"/>
<path d="M18.7373 37.1805V41.2383" stroke="#FF9140" stroke-width="2" stroke-linecap="round" stroke-linejoin="round"/>
<path d="M16.9126 39.2094H20.5616" stroke="#FF9140" stroke-width="2" stroke-linecap="round" stroke-linejoin="round"/>
<path d="M40.9619 37.2631V41.3209" stroke="#FF9140" stroke-width="2" stroke-linecap="round" stroke-linejoin="round"/>
<path d="M39.1375 39.292H42.7864" stroke="#FF9140" stroke-width="2" stroke-linecap="round" stroke-linejoin="round"/>
</svg>
