<svg width="28" height="28" viewBox="0 0 28 28" fill="none" xmlns="http://www.w3.org/2000/svg">
<path fill-rule="evenodd" clip-rule="evenodd" d="M11.8666 22.1667C12.2073 22.1667 12.5456 22.0185 12.7766 21.7315L18.4093 14.7315C18.757 14.2987 18.7523 13.6803 18.3965 13.2533L12.5631 6.25333C12.1513 5.75867 11.4151 5.69217 10.9193 6.104C10.4246 6.51583 10.3581 7.252 10.7711 7.74667L15.992 14.0128L10.9578 20.2685C10.5541 20.7702 10.6335 21.5052 11.1363 21.9088C11.351 22.0827 11.61 22.1667 11.8666 22.1667" fill="#5C85FF"/>
<mask id="mask0_1024_911" style="mask-type:luminance" maskUnits="userSpaceOnUse" x="10" y="5" width="9" height="18">
<path fill-rule="evenodd" clip-rule="evenodd" d="M11.8666 22.1667C12.2073 22.1667 12.5456 22.0185 12.7766 21.7315L18.4093 14.7315C18.757 14.2987 18.7523 13.6803 18.3965 13.2533L12.5631 6.25333C12.1513 5.75867 11.4151 5.69217 10.9193 6.104C10.4246 6.51583 10.3581 7.252 10.7711 7.74667L15.992 14.0128L10.9578 20.2685C10.5541 20.7702 10.6335 21.5052 11.1363 21.9088C11.351 22.0827 11.61 22.1667 11.8666 22.1667" fill="white"/>
</mask>
<g mask="url(#mask0_1024_911)">
<rect width="28" height="28" transform="matrix(-1 0 0 1 28 0)" fill="#5C85FF"/>
</g>
</svg>
