<svg width="28" height="28" viewBox="0 0 28 28" fill="none" xmlns="http://www.w3.org/2000/svg">
<path fill-rule="evenodd" clip-rule="evenodd" d="M16.1334 22.1667C15.7927 22.1667 15.4544 22.0185 15.2234 21.7315L9.59069 14.7315C9.24302 14.2987 9.24769 13.6803 9.60352 13.2533L15.4369 6.25333C15.8487 5.75867 16.5849 5.69217 17.0807 6.104C17.5754 6.51583 17.6419 7.252 17.2289 7.74667L12.008 14.0128L17.0422 20.2685C17.4459 20.7702 17.3665 21.5052 16.8637 21.9088C16.649 22.0827 16.39 22.1667 16.1334 22.1667" fill="#231F20"/>
<mask id="mask0_1024_161" style="mask-type:luminance" maskUnits="userSpaceOnUse" x="9" y="5" width="9" height="18">
<path fill-rule="evenodd" clip-rule="evenodd" d="M16.1334 22.1667C15.7927 22.1667 15.4544 22.0185 15.2234 21.7315L9.59069 14.7315C9.24302 14.2987 9.24769 13.6803 9.60352 13.2533L15.4369 6.25333C15.8487 5.75867 16.5849 5.69217 17.0807 6.104C17.5754 6.51583 17.6419 7.252 17.2289 7.74667L12.008 14.0128L17.0422 20.2685C17.4459 20.7702 17.3665 21.5052 16.8637 21.9088C16.649 22.0827 16.39 22.1667 16.1334 22.1667" fill="white"/>
</mask>
<g mask="url(#mask0_1024_161)">
<rect width="28" height="28" fill="#5C85FF"/>
</g>
</svg>
