<svg width="58" height="58" viewBox="0 0 58 58" fill="none" xmlns="http://www.w3.org/2000/svg">
<path d="M26.8088 24.4824C26.8293 24.0176 27.0285 23.5785 27.3649 23.2568C27.7013 22.9351 28.149 22.7555 28.6146 22.7555C29.0803 22.7555 29.528 22.9351 29.8644 23.2568C30.2008 23.5785 30.4 24.0176 30.4205 24.4824C30.5261 28.8852 31.9307 32.3649 33.6415 32.3649C35.421 32.3649 36.8678 28.6052 36.8678 23.9638C36.8687 23.1466 36.8224 22.3301 36.729 21.5182C36.6695 20.9605 36.7265 20.3965 36.8965 19.862C37.0665 19.3274 37.3457 18.834 37.7164 18.4129C39.1566 16.6665 39.9283 14.4651 39.8934 12.2024C39.8934 7.46252 36.7516 3.625 32.8706 3.625C32.0425 3.62577 31.2238 3.80118 30.4682 4.13974C29.9229 4.38208 29.3328 4.5073 28.7361 4.5073C28.1393 4.5073 27.5492 4.38208 27.004 4.13974C26.2484 3.80118 25.4297 3.62577 24.6016 3.625C20.7259 3.625 17.5788 7.46252 17.5788 12.2024C17.5488 14.3872 18.2666 16.5167 19.6132 18.2383C19.9646 18.6572 20.2271 19.1432 20.3847 19.6667C20.5422 20.1902 20.5915 20.7403 20.5296 21.2835C20.4164 22.1724 20.3603 23.0677 20.3615 23.9638C20.3615 28.6052 21.8083 32.3649 23.5878 32.3649C25.2986 32.3649 26.7032 28.8852 26.8088 24.4824Z" stroke="#D17633" stroke-width="2" stroke-linecap="round" stroke-linejoin="round"/>
<path d="M36.0691 11.3597C35.4744 9.94119 34.4846 8.72322 33.2173 7.85065" stroke="#D17633" stroke-width="2" stroke-linecap="round" stroke-linejoin="round"/>
<path d="M18.4161 42.6678L9.18144 32.364V19.4996C9.17506 18.7717 8.87961 18.0761 8.36007 17.5659C7.84053 17.0557 7.13945 16.7725 6.41104 16.7788C5.68262 16.7725 4.98154 17.0557 4.462 17.5659C3.94246 18.0761 3.647 18.7717 3.64062 19.4996V31.4843C3.64084 32.0628 3.7856 32.6321 4.06176 33.1405L11.1309 46.1736C11.6142 47.0633 11.8675 48.0595 11.8679 49.0719V51.7074C11.872 52.1786 12.0633 52.6289 12.3996 52.9592C12.7359 53.2895 13.1898 53.4727 13.6613 53.4687H21.408C21.8795 53.4727 22.3333 53.2895 22.6697 52.9592C23.006 52.6289 23.1972 52.1786 23.2014 51.7074V40.5816C23.2007 40.1175 23.1074 39.6582 22.927 39.2305C22.7466 38.8028 22.4828 38.4153 22.1508 38.0907L14.6231 30.6977C14.1359 30.2226 13.4838 29.9541 12.8031 29.9483C12.1224 29.9426 11.4658 30.1999 10.9705 30.6667C10.4893 31.1195 10.2046 31.7426 10.1774 32.4026C10.1502 33.0626 10.3827 33.7069 10.825 34.1978L18.4161 42.6678Z" stroke="#D17633" stroke-width="2" stroke-linecap="round" stroke-linejoin="round"/>
<path d="M38.7088 42.6671L47.9435 32.3633V19.4989C47.9498 18.771 48.2453 18.0754 48.7648 17.5652C49.2844 17.0549 49.9855 16.7718 50.7139 16.7781C51.4423 16.7718 52.1434 17.0549 52.6629 17.5652C53.1825 18.0754 53.4779 18.771 53.4843 19.4989V31.4836C53.4841 32.0621 53.3393 32.6313 53.0632 33.1397L45.994 46.1729C45.5107 47.0626 45.2574 48.0588 45.257 49.0711V51.7067C45.2529 52.1779 45.0616 52.6281 44.7253 52.9584C44.389 53.2887 43.9352 53.472 43.4636 53.468H35.717C35.2454 53.472 34.7916 53.2887 34.4553 52.9584C34.119 52.6281 33.9277 52.1779 33.9236 51.7067V40.5809C33.9243 40.1168 34.0175 39.6575 34.1979 39.2298C34.3783 38.8021 34.6422 38.4147 34.9741 38.0901L42.5018 30.6971C42.989 30.222 43.6412 29.9535 44.3219 29.9477C45.0026 29.9419 45.6592 30.1993 46.1544 30.666C46.6356 31.1188 46.9203 31.7419 46.9475 32.4019C46.9747 33.0619 46.7423 33.7062 46.3 34.1971L38.7088 42.6671Z" stroke="#D17633" stroke-width="2" stroke-linecap="round" stroke-linejoin="round"/>
</svg>
