<svg width="20" height="20" viewBox="0 0 20 20" fill="none" xmlns="http://www.w3.org/2000/svg">
<path d="M9.99731 4.86926C7.15795 4.86926 4.86644 7.16091 4.86644 10.0005C4.86644 12.84 7.15795 15.1317 9.99731 15.1317C12.8367 15.1317 15.1282 12.84 15.1282 10.0005C15.1282 7.16091 12.8367 4.86926 9.99731 4.86926ZM9.99731 13.3354C8.16111 13.3354 6.66262 11.8368 6.66262 10.0005C6.66262 8.16413 8.16111 6.66555 9.99731 6.66555C11.8335 6.66555 13.332 8.16413 13.332 10.0005C13.332 11.8368 11.8335 13.3354 9.99731 13.3354ZM15.3383 3.46324C14.6754 3.46324 14.14 3.99863 14.14 4.66161C14.14 5.32458 14.6754 5.85997 15.3383 5.85997C16.0013 5.85997 16.5366 5.32709 16.5366 4.66161C16.5368 4.50418 16.5059 4.34826 16.4458 4.20278C16.3856 4.0573 16.2974 3.92511 16.1861 3.81379C16.0748 3.70248 15.9426 3.61421 15.7971 3.55406C15.6516 3.49391 15.4957 3.46304 15.3383 3.46324ZM19.9989 10.0005C19.9989 8.61946 20.0114 7.25097 19.9338 5.87248C19.8563 4.27132 19.4911 2.8503 18.3203 1.67945C17.147 0.506109 15.7286 0.143347 14.1275 0.065791C12.7466 -0.0117649 11.3782 0.000744147 9.99981 0.000744147C8.61891 0.000744147 7.25051 -0.0117649 5.8721 0.065791C4.27105 0.143347 2.85012 0.50861 1.67935 1.67945C0.506076 2.8528 0.143338 4.27132 0.0657868 5.87248C-0.0117642 7.25348 0.000744099 8.62196 0.000744099 10.0005C0.000744099 11.379 -0.0117642 12.7499 0.0657868 14.1284C0.143338 15.7296 0.508578 17.1506 1.67935 18.3215C2.85262 19.4948 4.27105 19.8576 5.8721 19.9351C7.25301 20.0127 8.62141 20.0002 9.99981 20.0002C11.3807 20.0002 12.7491 20.0127 14.1275 19.9351C15.7286 19.8576 17.1495 19.4923 18.3203 18.3215C19.4936 17.1481 19.8563 15.7296 19.9338 14.1284C20.0139 12.7499 19.9989 11.3815 19.9989 10.0005ZM17.7974 15.8997C17.6148 16.355 17.3947 16.6953 17.0419 17.0455C16.6892 17.3983 16.3515 17.6185 15.8962 17.8011C14.5803 18.324 11.4558 18.2064 9.99731 18.2064C8.53885 18.2064 5.4118 18.324 4.09593 17.8036C3.64064 17.621 3.30041 17.4008 2.95018 17.048C2.59745 16.6953 2.37731 16.3575 2.19469 15.9022C1.67434 14.5838 1.79192 11.459 1.79192 10.0005C1.79192 8.54191 1.67434 5.41465 2.19469 4.0987C2.37731 3.64337 2.59745 3.30313 2.95018 2.95287C3.30291 2.60262 3.64064 2.37996 4.09593 2.19733C5.4118 1.67695 8.53885 1.79454 9.99731 1.79454C11.4558 1.79454 14.5828 1.67695 15.8987 2.19733C16.354 2.37996 16.6942 2.60012 17.0444 2.95287C17.3972 3.30563 17.6173 3.64337 17.7999 4.0987C18.3203 5.41465 18.2027 8.54191 18.2027 10.0005C18.2027 11.459 18.3203 14.5838 17.7974 15.8997Z" fill="#3366FF"/>
</svg>
