<svg width="30" height="28" viewBox="0 0 30 28" fill="none" xmlns="http://www.w3.org/2000/svg">
<path fill-rule="evenodd" clip-rule="evenodd" d="M8.53925 12.6034C8.53925 11.9709 9.08574 11.4575 9.75911 11.4575C10.4325 11.4575 10.979 11.9709 10.979 12.6034C10.979 13.2359 10.4325 13.7492 9.75911 13.7492C9.08574 13.7492 8.53925 13.2359 8.53925 12.6034ZM14.6386 11.4575C13.9652 11.4575 13.4187 11.9709 13.4187 12.6034C13.4187 13.2359 13.9652 13.7492 14.6386 13.7492C15.3119 13.7492 15.8584 13.2359 15.8584 12.6034C15.8584 11.9709 15.3119 11.4575 14.6386 11.4575ZM19.518 11.4575C18.8446 11.4575 18.2981 11.9709 18.2981 12.6034C18.2981 13.2359 18.8446 13.7492 19.518 13.7492C20.1914 13.7492 20.7379 13.2359 20.7379 12.6034C20.7379 11.9709 20.1914 11.4575 19.518 11.4575ZM24.2735 14.0871C23.655 17.8157 20.4553 20.9083 16.492 21.6062C14.578 21.9453 12.6287 21.7517 10.8599 21.0481C10.3585 20.8488 9.84011 20.7479 9.33142 20.7479C9.09965 20.7479 8.87032 20.7685 8.64464 20.8109L5.21439 21.4549L5.90118 18.2271C6.04512 17.5567 5.95729 16.8394 5.64866 16.1531C4.89967 14.4916 4.69473 12.6617 5.05459 10.8627C5.79749 7.13986 9.08867 4.13431 13.0593 3.55337V3.55337C16.2188 3.09159 19.3087 4.0266 21.5386 6.12121C23.7697 8.21696 24.7663 11.1205 24.2735 14.0871M23.2647 4.50098C20.4773 1.88387 16.6225 0.716256 12.6836 1.28803C7.71023 2.01679 3.5871 5.77975 2.65634 10.4399C2.20744 12.6835 2.46605 14.9683 3.40168 17.0457C3.52001 17.3104 3.5566 17.5567 3.51025 17.7779L2.46361 22.6913C2.3831 23.0671 2.50874 23.4555 2.79785 23.726C3.0284 23.9437 3.33947 24.0617 3.66029 24.0617C3.73958 24.0617 3.81887 24.0548 3.89938 24.0399L9.12405 23.0579C9.42413 23.0041 9.71446 23.0831 9.90842 23.1588C12.1225 24.0376 14.5549 24.2794 16.9409 23.8589C21.9033 22.9846 25.9093 19.1116 26.6852 14.44C27.2975 10.7424 26.0521 7.11924 23.2647 4.50098" fill="white"/>
<mask id="mask0_1133_169" style="mask-type:luminance" maskUnits="userSpaceOnUse" x="2" y="1" width="25" height="24">
<path fill-rule="evenodd" clip-rule="evenodd" d="M8.53925 12.6034C8.53925 11.9709 9.08574 11.4575 9.75911 11.4575C10.4325 11.4575 10.979 11.9709 10.979 12.6034C10.979 13.2359 10.4325 13.7492 9.75911 13.7492C9.08574 13.7492 8.53925 13.2359 8.53925 12.6034ZM14.6386 11.4575C13.9652 11.4575 13.4187 11.9709 13.4187 12.6034C13.4187 13.2359 13.9652 13.7492 14.6386 13.7492C15.3119 13.7492 15.8584 13.2359 15.8584 12.6034C15.8584 11.9709 15.3119 11.4575 14.6386 11.4575ZM19.518 11.4575C18.8446 11.4575 18.2981 11.9709 18.2981 12.6034C18.2981 13.2359 18.8446 13.7492 19.518 13.7492C20.1914 13.7492 20.7379 13.2359 20.7379 12.6034C20.7379 11.9709 20.1914 11.4575 19.518 11.4575ZM24.2735 14.0871C23.655 17.8157 20.4553 20.9083 16.492 21.6062C14.578 21.9453 12.6287 21.7517 10.8599 21.0481C10.3585 20.8488 9.84011 20.7479 9.33142 20.7479C9.09965 20.7479 8.87032 20.7685 8.64464 20.8109L5.21439 21.4549L5.90118 18.2271C6.04512 17.5567 5.95729 16.8394 5.64866 16.1531C4.89967 14.4916 4.69473 12.6617 5.05459 10.8627C5.79749 7.13986 9.08867 4.13431 13.0593 3.55337V3.55337C16.2188 3.09159 19.3087 4.0266 21.5386 6.12121C23.7697 8.21696 24.7663 11.1205 24.2735 14.0871M23.2647 4.50098C20.4773 1.88387 16.6225 0.716256 12.6836 1.28803C7.71023 2.01679 3.5871 5.77975 2.65634 10.4399C2.20744 12.6835 2.46605 14.9683 3.40168 17.0457C3.52001 17.3104 3.5566 17.5567 3.51025 17.7779L2.46361 22.6913C2.3831 23.0671 2.50874 23.4555 2.79785 23.726C3.0284 23.9437 3.33947 24.0617 3.66029 24.0617C3.73958 24.0617 3.81887 24.0548 3.89938 24.0399L9.12405 23.0579C9.42413 23.0041 9.71446 23.0831 9.90842 23.1588C12.1225 24.0376 14.5549 24.2794 16.9409 23.8589C21.9033 22.9846 25.9093 19.1116 26.6852 14.44C27.2975 10.7424 26.0521 7.11924 23.2647 4.50098" fill="white"/>
</mask>
<g mask="url(#mask0_1133_169)">
<rect width="29.2767" height="27.5003" fill="white"/>
</g>
</svg>
