<svg width="33" height="31" viewBox="0 0 33 31" fill="none" xmlns="http://www.w3.org/2000/svg">
<path fill-rule="evenodd" clip-rule="evenodd" d="M21.7693 16.6137C21.0182 16.6137 20.4086 16.0412 20.4086 15.3357C20.4086 14.6302 21.0182 14.0576 21.7693 14.0576C22.5203 14.0576 23.1299 14.6302 23.1299 15.3357C23.1299 16.0412 22.5203 16.6137 21.7693 16.6137M16.3268 16.6137C15.5757 16.6137 14.9662 16.0412 14.9662 15.3357C14.9662 14.6302 15.5757 14.0576 16.3268 14.0576C17.0779 14.0576 17.6874 14.6302 17.6874 15.3357C17.6874 16.0412 17.0779 16.6137 16.3268 16.6137M10.8843 16.6137C10.1333 16.6137 9.52373 16.0412 9.52373 15.3357C9.52373 14.6302 10.1333 14.0576 10.8843 14.0576C11.6354 14.0576 12.245 14.6302 12.245 15.3357C12.245 16.0412 11.6354 16.6137 10.8843 16.6137M25.9477 6.29852C22.8401 3.37944 18.5392 2.0771 14.1457 2.71485C8.59851 3.5277 3.99964 7.72484 2.96149 12.9227C2.46214 15.4251 2.74923 17.9736 3.79282 20.2907C3.92616 20.5847 3.96698 20.8607 3.91392 21.1074L2.74787 26.5877C2.65807 27.0069 2.79821 27.4402 3.11932 27.7418C3.37647 27.9833 3.72343 28.1162 4.08127 28.1162C4.16971 28.1162 4.25951 28.1086 4.34795 28.0907L10.1755 26.9967C10.5102 26.9366 10.8354 27.0248 11.0517 27.1091C13.5199 28.0894 16.2329 28.3578 18.8956 27.89C24.4293 26.9149 28.8975 22.595 29.7629 17.3844C30.4473 13.2588 29.0567 9.21889 25.9477 6.29852" fill="white"/>
<mask id="mask0_1133_984" style="mask-type:luminance" maskUnits="userSpaceOnUse" x="2" y="2" width="28" height="27">
<path fill-rule="evenodd" clip-rule="evenodd" d="M21.7693 16.6137C21.0182 16.6137 20.4086 16.0412 20.4086 15.3357C20.4086 14.6302 21.0182 14.0576 21.7693 14.0576C22.5203 14.0576 23.1299 14.6302 23.1299 15.3357C23.1299 16.0412 22.5203 16.6137 21.7693 16.6137M16.3268 16.6137C15.5757 16.6137 14.9662 16.0412 14.9662 15.3357C14.9662 14.6302 15.5757 14.0576 16.3268 14.0576C17.0779 14.0576 17.6874 14.6302 17.6874 15.3357C17.6874 16.0412 17.0779 16.6137 16.3268 16.6137M10.8843 16.6137C10.1333 16.6137 9.52373 16.0412 9.52373 15.3357C9.52373 14.6302 10.1333 14.0576 10.8843 14.0576C11.6354 14.0576 12.245 14.6302 12.245 15.3357C12.245 16.0412 11.6354 16.6137 10.8843 16.6137M25.9477 6.29852C22.8401 3.37944 18.5392 2.0771 14.1457 2.71485C8.59851 3.5277 3.99964 7.72484 2.96149 12.9227C2.46214 15.4251 2.74923 17.9736 3.79282 20.2907C3.92616 20.5847 3.96698 20.8607 3.91392 21.1074L2.74787 26.5877C2.65807 27.0069 2.79821 27.4402 3.11932 27.7418C3.37647 27.9833 3.72343 28.1162 4.08127 28.1162C4.16971 28.1162 4.25951 28.1086 4.34795 28.0907L10.1755 26.9967C10.5102 26.9366 10.8354 27.0248 11.0517 27.1091C13.5199 28.0894 16.2329 28.3578 18.8956 27.89C24.4293 26.9149 28.8975 22.595 29.7629 17.3844C30.4473 13.2588 29.0567 9.21889 25.9477 6.29852" fill="white"/>
</mask>
<g mask="url(#mask0_1133_984)">
<rect width="32.6547" height="30.6734" fill="white"/>
</g>
</svg>
