<svg width="24" height="24" viewBox="0 0 24 24" fill="none" xmlns="http://www.w3.org/2000/svg">
<path fill-rule="evenodd" clip-rule="evenodd" d="M13.5192 6.75902C13.5192 5.69399 12.653 4.82787 11.5879 4.82787C10.5227 4.82787 9.65655 5.69399 9.65655 6.75902C9.65655 7.82404 10.5227 8.69016 11.5879 8.69016C12.653 8.69016 13.5192 7.82404 13.5192 6.75902ZM15.4505 6.75902C15.4505 8.88907 13.7181 10.6213 11.5879 10.6213C9.45762 10.6213 7.72524 8.88907 7.72524 6.75902C7.72524 4.62896 9.45762 2.89673 11.5879 2.89673C13.7181 2.89673 15.4505 4.62896 15.4505 6.75902ZM4.82827 19.3115C4.82827 15.5843 7.8614 12.5525 11.5879 12.5525C15.3143 12.5525 18.3474 15.5843 18.3474 19.3115C18.3474 19.8445 17.9158 20.277 17.3818 20.277C16.8478 20.277 16.4161 19.8445 16.4161 19.3115C16.4161 16.6494 14.2502 14.4836 11.5879 14.4836C8.92555 14.4836 6.75958 16.6494 6.75958 19.3115C6.75958 19.8445 6.32794 20.277 5.79393 20.277C5.25992 20.277 4.82827 19.8445 4.82827 19.3115Z" fill="white"/>
<mask id="mask0_0_965" style="mask-type:luminance" maskUnits="userSpaceOnUse" x="4" y="2" width="15" height="19">
<path fill-rule="evenodd" clip-rule="evenodd" d="M13.5192 6.75902C13.5192 5.69399 12.653 4.82787 11.5879 4.82787C10.5227 4.82787 9.65655 5.69399 9.65655 6.75902C9.65655 7.82404 10.5227 8.69016 11.5879 8.69016C12.653 8.69016 13.5192 7.82404 13.5192 6.75902ZM15.4505 6.75902C15.4505 8.88907 13.7181 10.6213 11.5879 10.6213C9.45762 10.6213 7.72524 8.88907 7.72524 6.75902C7.72524 4.62896 9.45762 2.89673 11.5879 2.89673C13.7181 2.89673 15.4505 4.62896 15.4505 6.75902ZM4.82827 19.3115C4.82827 15.5843 7.8614 12.5525 11.5879 12.5525C15.3143 12.5525 18.3474 15.5843 18.3474 19.3115C18.3474 19.8445 17.9158 20.277 17.3818 20.277C16.8478 20.277 16.4161 19.8445 16.4161 19.3115C16.4161 16.6494 14.2502 14.4836 11.5879 14.4836C8.92555 14.4836 6.75958 16.6494 6.75958 19.3115C6.75958 19.8445 6.32794 20.277 5.79393 20.277C5.25992 20.277 4.82827 19.8445 4.82827 19.3115Z" fill="white"/>
</mask>
<g mask="url(#mask0_0_965)">
<rect width="23.1757" height="23.1737" fill="white"/>
</g>
</svg>
