<svg width="19" height="19" viewBox="0 0 19 19" fill="none" xmlns="http://www.w3.org/2000/svg">
<path fill-rule="evenodd" clip-rule="evenodd" d="M3.95833 8.70833C3.95833 6.08871 6.08871 3.95833 8.70833 3.95833C11.328 3.95833 13.4583 6.08871 13.4583 8.70833C13.4583 11.328 11.328 13.4583 8.70833 13.4583C6.08871 13.4583 3.95833 11.328 3.95833 8.70833ZM16.393 15.2736L13.7053 12.5851C14.539 11.5132 15.0417 10.1698 15.0417 8.70833C15.0417 5.21629 12.2004 2.375 8.70833 2.375C5.21629 2.375 2.375 5.21629 2.375 8.70833C2.375 12.2004 5.21629 15.0417 8.70833 15.0417C10.1698 15.0417 11.5132 14.539 12.5851 13.7053L15.2736 16.393C15.428 16.5474 15.6307 16.625 15.8333 16.625C16.036 16.625 16.2387 16.5474 16.393 16.393C16.7026 16.0835 16.7026 15.5832 16.393 15.2736Z" fill="#231F20"/>
<mask id="mask0_1049_1317" style="mask-type:luminance" maskUnits="userSpaceOnUse" x="2" y="2" width="15" height="15">
<path fill-rule="evenodd" clip-rule="evenodd" d="M3.95833 8.70833C3.95833 6.08871 6.08871 3.95833 8.70833 3.95833C11.328 3.95833 13.4583 6.08871 13.4583 8.70833C13.4583 11.328 11.328 13.4583 8.70833 13.4583C6.08871 13.4583 3.95833 11.328 3.95833 8.70833ZM16.393 15.2736L13.7053 12.5851C14.539 11.5132 15.0417 10.1698 15.0417 8.70833C15.0417 5.21629 12.2004 2.375 8.70833 2.375C5.21629 2.375 2.375 5.21629 2.375 8.70833C2.375 12.2004 5.21629 15.0417 8.70833 15.0417C10.1698 15.0417 11.5132 14.539 12.5851 13.7053L15.2736 16.393C15.428 16.5474 15.6307 16.625 15.8333 16.625C16.036 16.625 16.2387 16.5474 16.393 16.393C16.7026 16.0835 16.7026 15.5832 16.393 15.2736Z" fill="white"/>
</mask>
<g mask="url(#mask0_1049_1317)">
<rect width="19" height="19" fill="white"/>
</g>
</svg>
