<svg width="17" height="16" viewBox="0 0 17 16" fill="none" xmlns="http://www.w3.org/2000/svg">
<path d="M7.93389 0.33831C8.08811 -0.112612 8.72585 -0.112612 8.88008 0.338311L10.5365 5.18122C10.6056 5.3835 10.7958 5.51942 11.0095 5.51942H16.3129C16.8035 5.51942 17.0007 6.15226 16.5969 6.43092L12.3513 9.36133C12.167 9.48853 12.0898 9.72276 12.1622 9.93464L13.7942 14.7062C13.9502 15.1624 13.4339 15.5534 13.0371 15.2795L8.691 12.2798C8.52004 12.1618 8.29392 12.1618 8.12296 12.2798L3.77688 15.2795C3.3801 15.5534 2.86374 15.1624 3.01977 14.7062L4.65174 9.93464C4.72421 9.72276 4.64697 9.48853 4.46267 9.36133L0.217017 6.43091C-0.186704 6.15226 0.0104917 5.51942 0.50104 5.51942H5.80442C6.0182 5.51942 6.20833 5.3835 6.27751 5.18122L7.93389 0.33831Z" fill="#FFD3B3"/>
</svg>
