<svg width="55" height="55" viewBox="0 0 55 55" fill="none" xmlns="http://www.w3.org/2000/svg">
<path d="M3.43757 38.3602V45.8015C3.45546 47.1168 3.99415 48.3713 4.93553 49.2901C5.87692 50.2088 7.1442 50.7168 8.45954 50.7027H45.6643C46.9822 50.7203 48.2532 50.2139 49.1981 49.2949C50.1429 48.3759 50.6842 47.1194 50.7031 45.8015V37.5078C50.7031 40.798 48.0529 44.3269 44.7865 44.3269C42.4992 44.3269 40.5157 43.8155 39.5366 42.3749C39.4634 42.2631 39.3631 42.1717 39.2451 42.1091C39.127 42.0465 38.995 42.0148 38.8614 42.017C38.7352 42.0228 38.6122 42.0582 38.5022 42.1204C38.3922 42.1826 38.2984 42.2698 38.2284 42.3749C37.2409 43.8155 35.2574 44.3269 32.9701 44.3269C30.6828 44.3269 28.6993 43.8155 27.7203 42.3749C27.6484 42.2674 27.551 42.1792 27.437 42.1183C27.3229 42.0573 27.1955 42.0254 27.0661 42.0254C26.9368 42.0254 26.8094 42.0573 26.6953 42.1183C26.5812 42.1792 26.4839 42.2674 26.412 42.3749C25.4245 43.8155 23.441 44.3269 21.1537 44.3269C18.8664 44.3269 16.8829 43.8155 15.9039 42.3749C15.8338 42.2698 15.74 42.1826 15.6301 42.1204C15.5201 42.0582 15.397 42.0228 15.2708 42.017C15.1372 42.0148 15.0052 42.0465 14.8872 42.1091C14.7691 42.1717 14.6688 42.2631 14.5956 42.3749C13.6081 43.8155 11.6246 44.3269 9.33733 44.3269C7.76405 44.317 6.25901 43.6831 5.1528 42.5643C4.0466 41.4456 3.42968 39.9335 3.43757 38.3602Z" stroke="#F9CD3B" stroke-width="2" stroke-linecap="round" stroke-linejoin="round"/>
<path d="M38.8613 30.8678V42.0169C38.9949 42.0148 39.1269 42.0465 39.245 42.1091C39.3631 42.1717 39.4634 42.2631 39.5365 42.3749C40.5156 43.8155 42.4991 44.3269 44.7864 44.3269C48.0528 44.3269 50.703 40.798 50.703 37.5078V30.8678H38.8613Z" stroke="#F9CD3B" stroke-width="2" stroke-linecap="round" stroke-linejoin="round"/>
<path d="M27.0703 30.8678V42.0254C27.1989 42.0266 27.3252 42.059 27.4384 42.1199C27.5516 42.1808 27.6484 42.2683 27.7202 42.3749C28.6993 43.8155 30.6828 44.3269 32.9701 44.3269C35.2574 44.3269 37.2408 43.8155 38.2284 42.3749C38.2984 42.2698 38.3922 42.1826 38.5022 42.1204C38.6121 42.0582 38.7352 42.0228 38.8614 42.0169V30.8678H27.0703Z" stroke="#F9CD3B" stroke-width="2" stroke-linecap="round" stroke-linejoin="round"/>
<path d="M15.2708 30.8678V42.0169C15.397 42.0228 15.52 42.0582 15.63 42.1204C15.7399 42.1826 15.8337 42.2698 15.9038 42.3749C16.8828 43.8155 18.8663 44.3269 21.1536 44.3269C23.4409 44.3269 25.4244 43.8155 26.4119 42.3749C26.4841 42.2667 26.5821 42.1781 26.697 42.1171C26.8119 42.0561 26.9402 42.0246 27.0703 42.0254V30.8678H15.2708Z" stroke="#F9CD3B" stroke-width="2" stroke-linecap="round" stroke-linejoin="round"/>
<path d="M3.43757 30.8678V38.3602C3.42968 39.9335 4.0466 41.4456 5.1528 42.5643C6.25901 43.6831 7.76405 44.317 9.33733 44.3269C11.6246 44.3269 13.6081 43.8155 14.5956 42.3749C14.6688 42.2631 14.7691 42.1717 14.8872 42.1091C15.0052 42.0465 15.1372 42.0148 15.2708 42.0169V30.8678H3.43757Z" stroke="#F9CD3B" stroke-width="2" stroke-linecap="round" stroke-linejoin="round"/>
<path d="M39.4271 3.4375H34.2217C33.9979 3.4375 33.7832 3.52642 33.6249 3.68471C33.4666 3.84299 33.3777 4.05767 33.3777 4.28152V8.74659C33.3777 8.96899 33.4655 9.18241 33.622 9.34045L36.9762 12.7278L40.0276 9.64622C40.1841 9.48815 40.2719 9.27467 40.2719 9.05222L40.2711 4.28139C40.2711 4.05756 40.1821 3.84292 40.0239 3.68466C39.8656 3.5264 39.6509 3.4375 39.4271 3.4375Z" stroke="#F9CD3B" stroke-width="2" stroke-linecap="round" stroke-linejoin="round"/>
<path d="M36.9761 12.7278V16.7122" stroke="#F9CD3B" stroke-width="2" stroke-linecap="round" stroke-linejoin="round"/>
<path d="M7.12402 6.73106L11.6066 6.94381C15.6148 7.13404 19.632 6.90269 23.5919 6.25357L33.3778 4.64944" stroke="#F9CD3B" stroke-width="2" stroke-linecap="round" stroke-linejoin="round"/>
<path d="M7.12402 14.1611C14.0737 14.1611 20.9655 12.8968 27.4626 10.43L33.3778 8.18416" stroke="#F9CD3B" stroke-width="2" stroke-linecap="round" stroke-linejoin="round"/>
<path d="M22.9199 6.3596V11.9408" stroke="#F9CD3B" stroke-width="2" stroke-linecap="round" stroke-linejoin="round"/>
<path d="M34.278 16.7122H39.6744C39.8491 16.7122 40.0195 16.7664 40.1621 16.8673C40.3047 16.9682 40.4125 17.1109 40.4705 17.2757L42.4646 22.936C42.5543 23.1905 42.5817 23.4629 42.5444 23.7302C42.5071 23.9975 42.4062 24.2519 42.2503 24.4722C42.0943 24.6925 41.8878 24.8722 41.6481 24.9962C41.4084 25.1202 41.1424 25.1849 40.8725 25.1849H33.0799C32.81 25.1849 32.544 25.1202 32.3043 24.9962C32.0646 24.8722 31.8581 24.6925 31.7022 24.4722C31.5462 24.2519 31.4454 23.9975 31.408 23.7302C31.3707 23.4629 31.3981 23.1905 31.4878 22.936L33.4819 17.2757C33.5399 17.1109 33.6477 16.9682 33.7903 16.8673C33.9329 16.7664 34.1033 16.7122 34.278 16.7122Z" stroke="#F9CD3B" stroke-width="2" stroke-linecap="round" stroke-linejoin="round"/>
</svg>
