<svg width="20" height="20" viewBox="0 0 20 20" fill="none" xmlns="http://www.w3.org/2000/svg">
<path d="M4.94291 0C1.97716 0 0 2.97079 0 5.94157C0 8.03102 0.988581 10.8929 1.97716 11.8831C2.96574 12.8734 3.95432 19.8052 5.93149 19.8052C10.4196 19.8052 7.90865 12.8734 9.88581 12.8734C11.863 12.8734 9.35198 19.8052 13.8401 19.8052C15.8173 19.8052 16.8059 12.8734 17.7945 11.8831C18.783 10.8929 19.7716 8.03102 19.7716 5.94157C19.7716 2.97079 17.7945 0 14.8287 0C11.863 0 11.863 0.990262 9.88581 0.990262C7.90865 0.990262 7.90865 0 4.94291 0Z" fill="white"/>
</svg>
