<svg width="53" height="54" viewBox="0 0 53 54" fill="none" xmlns="http://www.w3.org/2000/svg">
<path d="M43.1766 5.3568C40.3309 6.20065 37.8856 7.77964 36.1991 9.86222C34.5127 11.9448 33.6739 14.4214 33.8057 16.9289C33.9376 19.4364 35.0331 21.8428 36.9317 23.7954C38.8303 25.7479 41.4321 27.1438 44.3555 27.7783C43.8851 28.7514 43.7178 29.8072 43.869 30.8482C44.0716 32.2329 44.1716 33.6267 44.1684 35.0216C44.1684 42.2416 41.5954 48.0938 38.4236 48.0938C35.3735 48.0938 32.8754 42.6846 32.6882 35.8299C32.6909 35.4774 32.6096 35.128 32.449 34.8017C32.2885 34.4754 32.0518 34.1787 31.7527 33.9287C31.4535 33.6786 31.0978 33.4802 30.706 33.3448C30.3142 33.2094 29.894 33.1397 29.4697 33.1397C29.0453 33.1397 28.6251 33.2094 28.2333 33.3448C27.8415 33.4802 27.4858 33.6786 27.1867 33.9287C26.8875 34.1787 26.6509 34.4754 26.4903 34.8017C26.3298 35.128 26.2485 35.4774 26.2511 35.8299C26.064 42.6846 23.5659 48.0938 20.5157 48.0938C17.3439 48.0938 14.771 42.2416 14.771 35.0216C14.7692 33.7495 14.8504 32.4783 15.0142 31.2135C15.1235 30.3522 15.0241 29.4815 14.722 28.6526C14.4199 27.8238 13.9212 27.0535 13.2552 26.3872C10.6724 23.6266 9.30546 20.2147 9.38169 16.7191C9.38171 9.34372 14.9768 3.375 21.8911 3.375C23.37 3.37662 24.8301 3.64998 26.1669 4.17549C27.1315 4.55168 28.1841 4.74671 29.2498 4.74671C30.3155 4.74671 31.3681 4.55168 32.3327 4.17549C33.6724 3.64913 35.1359 3.37576 36.6179 3.375C39.0124 3.39409 41.327 4.09345 43.1766 5.3568Z" stroke="#2952CE" stroke-width="2" stroke-linecap="round" stroke-linejoin="round"/>
<path d="M46.2923 25.1826C48.1831 22.6414 49.1662 19.7064 49.1273 16.7191C49.1782 13.513 48.0344 10.3723 45.8526 7.7272C41.4551 9.39814 38.4705 12.639 38.4705 16.3772C38.4705 20.232 41.6516 23.5738 46.2923 25.1826Z" stroke="#2952CE" stroke-width="2" stroke-linecap="round" stroke-linejoin="round"/>
<path d="M15.4126 13.1872C16.4982 10.9886 18.3187 9.09395 20.6591 7.7272" stroke="#2952CE" stroke-width="2" stroke-linecap="round" stroke-linejoin="round"/>
</svg>
