<svg width="109" height="28" viewBox="0 0 109 28" fill="none" xmlns="http://www.w3.org/2000/svg">
<g clip-path="url(#clip0_54_2258)">
<path d="M25.6079 3.59726C23.3956 1.29138 19.5931 0.158203 14.007 0.158203C8.42078 0.158203 4.61831 1.2782 2.40596 3.59726C0.760531 5.29703 0.0276919 7.64244 0.193618 10.5676C0.373371 13.6114 0.954112 16.497 1.93584 19.1587C2.71016 21.2801 3.71954 23.217 4.92251 24.9036C6.30522 26.8406 7.63263 27.8288 8.87707 27.8288C9.59609 27.8288 10.6193 27.4862 11.3936 25.8523C12.2647 24.0208 13.205 22.9667 13.9931 22.9667C14.7813 22.9667 15.7215 24.0208 16.5926 25.8523C17.367 27.4862 18.3902 27.8288 19.1092 27.8288C20.3536 27.8288 21.681 26.8406 23.0637 24.9036C24.2667 23.217 25.2761 21.2801 26.0642 19.1455C27.046 16.4838 27.6267 13.5982 27.8065 10.5544C27.9724 7.64244 27.2395 5.29703 25.6079 3.59726ZM14.007 1.38361C15.7215 1.38361 17.2563 1.48903 18.6114 1.71303C20.9482 2.41138 22.5383 3.55773 22.7734 4.71726C22.8978 5.32338 22.6213 5.90314 21.9437 6.44338C21.3353 6.93091 20.6302 7.16809 19.7591 7.16809C18.1136 7.16809 16.2055 6.35114 14.1729 5.49467C12.6242 4.83585 11.0203 4.16385 9.48547 3.84762C8.65584 3.6895 7.85386 3.59726 7.07954 3.59726C5.58621 3.59726 4.2588 3.92667 3.19411 4.54597C3.22177 4.51961 3.26325 4.48009 3.2909 4.44056C5.26819 2.38503 8.76646 1.38361 14.007 1.38361ZM10.2874 25.3384C9.88646 26.1817 9.41633 26.6166 8.8909 26.6166C8.11658 26.6166 7.03806 25.7469 5.94572 24.2184C2.91757 19.857 1.82522 14.0198 3.443 10.9366C3.92695 10.0142 4.79806 9.46079 5.77979 9.46079C6.92744 9.46079 8.82177 10.1723 11.2692 13.5323C13.0667 15.9831 13.9655 18.6711 14.8228 21.2669C14.9057 21.5173 14.9887 21.7808 15.0716 22.0311C14.7121 21.8467 14.3526 21.7544 13.9793 21.7544C12.6657 21.7544 11.4074 22.9667 10.2874 25.3384ZM26.562 10.5017C26.1472 17.5116 23.5615 22.097 22.0544 24.2184C20.962 25.7469 19.8835 26.6166 19.1092 26.6166C18.5837 26.6166 18.1136 26.1817 17.7126 25.3384C17.685 25.2726 17.6573 25.2198 17.6297 25.154C16.9936 23.8495 16.5235 22.4133 16.0119 20.8848C15.1131 18.1968 14.1867 15.4166 12.2786 12.8208C9.51312 9.03914 7.21781 8.24856 5.77979 8.24856C4.32794 8.24856 3.04201 9.03914 2.35065 10.3831C2.00498 11.0156 1.76991 11.7535 1.63164 12.5704C1.54868 11.9116 1.47954 11.2264 1.43806 10.5149C1.41041 8.70973 1.90819 7.29985 2.90374 6.31161C3.87164 5.33656 5.32349 4.82267 7.07954 4.82267C7.75707 4.82267 8.48991 4.90173 9.23658 5.05985C10.647 5.33656 12.1818 5.99538 13.6751 6.62785C15.7353 7.4975 17.8647 8.3935 19.7591 8.3935C20.9067 8.3935 21.9023 8.06409 22.7319 7.39209C23.7551 6.56197 24.1976 5.5342 23.9902 4.48009C23.921 4.15067 23.7828 3.82126 23.5892 3.49185C24.004 3.78173 24.3773 4.08479 24.7092 4.42738C26.1057 5.90314 26.7141 7.89279 26.562 10.5017Z" fill="url(#paint0_linear_54_2258)" stroke="url(#paint1_linear_54_2258)" stroke-width="0.25" stroke-miterlimit="10"/>
</g>
<path d="M41.936 15.168C41.1987 15.168 40.5127 15.0327 39.878 14.762C39.2527 14.4913 38.7067 14.118 38.24 13.642C37.7827 13.1567 37.4233 12.5873 37.162 11.934C36.9007 11.2807 36.77 10.562 36.77 9.778C36.77 9.00333 36.896 8.28933 37.148 7.636C37.4093 6.97333 37.7733 6.404 38.24 5.928C38.7067 5.44267 39.2527 5.06933 39.878 4.808C40.5033 4.53733 41.1893 4.402 41.936 4.402C42.6733 4.402 43.3313 4.528 43.91 4.78C44.498 5.032 44.9927 5.36333 45.394 5.774C45.7953 6.17533 46.0847 6.614 46.262 7.09L44.778 7.79C44.554 7.23 44.1947 6.77733 43.7 6.432C43.2147 6.07733 42.6267 5.9 41.936 5.9C41.2453 5.9 40.634 6.06333 40.102 6.39C39.57 6.71667 39.1547 7.16933 38.856 7.748C38.5667 8.32667 38.422 9.00333 38.422 9.778C38.422 10.5527 38.5667 11.234 38.856 11.822C39.1547 12.4007 39.57 12.8533 40.102 13.18C40.634 13.4973 41.2453 13.656 41.936 13.656C42.6267 13.656 43.2147 13.4833 43.7 13.138C44.1947 12.7927 44.554 12.34 44.778 11.78L46.262 12.48C46.0847 12.9467 45.7953 13.3853 45.394 13.796C44.9927 14.2067 44.498 14.538 43.91 14.79C43.3313 15.042 42.6733 15.168 41.936 15.168ZM51.6041 15.168C50.8761 15.168 50.2088 14.9953 49.6021 14.65C49.0048 14.3047 48.5288 13.8333 48.1741 13.236C47.8194 12.6387 47.6421 11.962 47.6421 11.206C47.6421 10.4407 47.8194 9.764 48.1741 9.176C48.5288 8.57867 49.0048 8.112 49.6021 7.776C50.1994 7.43067 50.8668 7.258 51.6041 7.258C52.3508 7.258 53.0181 7.43067 53.6061 7.776C54.2034 8.112 54.6748 8.57867 55.0201 9.176C55.3748 9.764 55.5521 10.4407 55.5521 11.206C55.5521 11.9713 55.3748 12.6527 55.0201 13.25C54.6654 13.8473 54.1894 14.3187 53.5921 14.664C52.9948 15 52.3321 15.168 51.6041 15.168ZM51.6041 13.698C52.0521 13.698 52.4488 13.5907 52.7941 13.376C53.1394 13.1613 53.4101 12.8673 53.6061 12.494C53.8114 12.1113 53.9141 11.682 53.9141 11.206C53.9141 10.73 53.8114 10.3053 53.6061 9.932C53.4101 9.55867 53.1394 9.26467 52.7941 9.05C52.4488 8.83533 52.0521 8.728 51.6041 8.728C51.1654 8.728 50.7688 8.83533 50.4141 9.05C50.0688 9.26467 49.7934 9.55867 49.5881 9.932C49.3921 10.3053 49.2941 10.73 49.2941 11.206C49.2941 11.682 49.3921 12.1113 49.5881 12.494C49.7934 12.8673 50.0688 13.1613 50.4141 13.376C50.7688 13.5907 51.1654 13.698 51.6041 13.698ZM57.3766 15V7.426H58.8886V8.91L58.7066 8.714C58.8932 8.238 59.1919 7.87867 59.6026 7.636C60.0132 7.384 60.4892 7.258 61.0306 7.258C61.5906 7.258 62.0852 7.37933 62.5146 7.622C62.9439 7.86467 63.2799 8.20067 63.5226 8.63C63.7652 9.05933 63.8866 9.554 63.8866 10.114V15H62.3186V10.534C62.3186 10.1513 62.2486 9.82933 62.1086 9.568C61.9686 9.29733 61.7679 9.092 61.5066 8.952C61.2546 8.80267 60.9652 8.728 60.6386 8.728C60.3119 8.728 60.0179 8.80267 59.7566 8.952C59.5046 9.092 59.3086 9.29733 59.1686 9.568C59.0286 9.83867 58.9586 10.1607 58.9586 10.534V15H57.3766ZM66.7137 15V8.854H65.3137V7.426H66.7137V7.034C66.7137 6.46467 66.8304 5.98867 67.0637 5.606C67.297 5.214 67.619 4.91533 68.0297 4.71C68.4497 4.50467 68.9304 4.402 69.4717 4.402C69.5744 4.402 69.691 4.41133 69.8217 4.43C69.9524 4.43933 70.0597 4.45333 70.1437 4.472V5.844C70.069 5.82533 69.985 5.816 69.8917 5.816C69.7984 5.80667 69.7237 5.802 69.6677 5.802C69.2477 5.802 68.9117 5.9 68.6597 6.096C68.4077 6.28267 68.2817 6.59533 68.2817 7.034V7.426H71.9077V8.854H68.2817V15H66.7137ZM71.1657 15V7.426H72.7337V15H71.1657ZM78.1846 15.168C77.4566 15.168 76.8033 14.9953 76.2246 14.65C75.6553 14.2953 75.2026 13.8193 74.8666 13.222C74.54 12.6247 74.3766 11.9527 74.3766 11.206C74.3766 10.4593 74.5446 9.78733 74.8806 9.19C75.2166 8.59267 75.6693 8.12133 76.2386 7.776C76.808 7.43067 77.452 7.258 78.1706 7.258C78.7773 7.258 79.314 7.37933 79.7806 7.622C80.2473 7.86467 80.616 8.20067 80.8866 8.63L80.6486 8.994V4.402H82.2166V15H80.7186V13.46L80.9006 13.754C80.6393 14.2113 80.266 14.5613 79.7806 14.804C79.2953 15.0467 78.7633 15.168 78.1846 15.168ZM78.3386 13.698C78.7773 13.698 79.1693 13.5907 79.5146 13.376C79.8693 13.1613 80.1446 12.8673 80.3406 12.494C80.546 12.1113 80.6486 11.682 80.6486 11.206C80.6486 10.73 80.546 10.3053 80.3406 9.932C80.1446 9.55867 79.8693 9.26467 79.5146 9.05C79.1693 8.83533 78.7773 8.728 78.3386 8.728C77.9 8.728 77.5033 8.83533 77.1486 9.05C76.794 9.26467 76.5186 9.55867 76.3226 9.932C76.1266 10.3053 76.0286 10.73 76.0286 11.206C76.0286 11.682 76.1266 12.1113 76.3226 12.494C76.5186 12.8673 76.7893 13.1613 77.1346 13.376C77.4893 13.5907 77.8906 13.698 78.3386 13.698ZM87.8995 15.168C87.1435 15.168 86.4715 14.9953 85.8835 14.65C85.3049 14.2953 84.8522 13.8193 84.5255 13.222C84.1989 12.6153 84.0355 11.9387 84.0355 11.192C84.0355 10.4267 84.1989 9.75 84.5255 9.162C84.8615 8.574 85.3095 8.112 85.8695 7.776C86.4295 7.43067 87.0642 7.258 87.7735 7.258C88.3429 7.258 88.8515 7.356 89.2995 7.552C89.7475 7.748 90.1255 8.01867 90.4335 8.364C90.7415 8.7 90.9749 9.08733 91.1335 9.526C91.3015 9.96467 91.3855 10.4313 91.3855 10.926C91.3855 11.0473 91.3809 11.1733 91.3715 11.304C91.3622 11.4347 91.3435 11.556 91.3155 11.668H85.2815V10.408H90.4195L89.6635 10.982C89.7569 10.5247 89.7242 10.1187 89.5655 9.764C89.4162 9.4 89.1829 9.11533 88.8655 8.91C88.5575 8.69533 88.1935 8.588 87.7735 8.588C87.3535 8.588 86.9802 8.69533 86.6535 8.91C86.3269 9.11533 86.0749 9.414 85.8975 9.806C85.7202 10.1887 85.6502 10.6553 85.6875 11.206C85.6409 11.7193 85.7109 12.1673 85.8975 12.55C86.0935 12.9327 86.3642 13.2313 86.7095 13.446C87.0642 13.6607 87.4655 13.768 87.9135 13.768C88.3709 13.768 88.7582 13.6653 89.0755 13.46C89.4022 13.2547 89.6589 12.9887 89.8455 12.662L91.1335 13.292C90.9842 13.6467 90.7509 13.9687 90.4335 14.258C90.1255 14.538 89.7522 14.762 89.3135 14.93C88.8842 15.0887 88.4129 15.168 87.8995 15.168ZM93.2095 15V7.426H94.7215V8.91L94.5395 8.714C94.7261 8.238 95.0248 7.87867 95.4355 7.636C95.8461 7.384 96.3221 7.258 96.8635 7.258C97.4235 7.258 97.9181 7.37933 98.3475 7.622C98.7768 7.86467 99.1128 8.20067 99.3555 8.63C99.5981 9.05933 99.7195 9.554 99.7195 10.114V15H98.1515V10.534C98.1515 10.1513 98.0815 9.82933 97.9415 9.568C97.8015 9.29733 97.6008 9.092 97.3395 8.952C97.0875 8.80267 96.7981 8.728 96.4715 8.728C96.1448 8.728 95.8508 8.80267 95.5895 8.952C95.3375 9.092 95.1415 9.29733 95.0015 9.568C94.8615 9.83867 94.7915 10.1607 94.7915 10.534V15H93.2095ZM104.969 15.084C104.175 15.084 103.559 14.86 103.121 14.412C102.682 13.964 102.463 13.334 102.463 12.522V8.854H101.133V7.426H101.343C101.697 7.426 101.973 7.32333 102.169 7.118C102.365 6.91267 102.463 6.63267 102.463 6.278V5.69H104.045V7.426H105.767V8.854H104.045V12.452C104.045 12.7133 104.087 12.9373 104.171 13.124C104.255 13.3013 104.39 13.4413 104.577 13.544C104.763 13.6373 105.006 13.684 105.305 13.684C105.379 13.684 105.463 13.6793 105.557 13.67C105.65 13.6607 105.739 13.6513 105.823 13.642V15C105.692 15.0187 105.547 15.0373 105.389 15.056C105.23 15.0747 105.09 15.084 104.969 15.084Z" fill="#2952CE"/>
<path d="M36.584 26V20.4H38.304C38.9547 20.4 39.4933 20.5147 39.92 20.744C40.3467 20.9733 40.6613 21.2987 40.864 21.72C41.072 22.136 41.176 22.632 41.176 23.208C41.176 23.784 41.072 24.28 40.864 24.696C40.6613 25.112 40.3467 25.4347 39.92 25.664C39.4987 25.888 38.96 26 38.304 26H36.584ZM37.384 25.328H38.272C38.7893 25.328 39.2 25.2427 39.504 25.072C39.808 24.9013 40.024 24.6587 40.152 24.344C40.2853 24.024 40.352 23.6453 40.352 23.208C40.352 22.7653 40.2853 22.384 40.152 22.064C40.024 21.744 39.808 21.4987 39.504 21.328C39.2 21.1573 38.7893 21.072 38.272 21.072H37.384V25.328ZM44.2427 26.096C43.8587 26.096 43.5174 26.008 43.2187 25.832C42.92 25.656 42.6854 25.4107 42.5147 25.096C42.3494 24.7813 42.2667 24.416 42.2667 24C42.2667 23.5733 42.3494 23.2027 42.5147 22.888C42.6854 22.568 42.92 22.32 43.2187 22.144C43.5174 21.9627 43.864 21.872 44.2587 21.872C44.6534 21.872 44.992 21.96 45.2747 22.136C45.5574 22.312 45.776 22.5467 45.9307 22.84C46.0854 23.128 46.1627 23.448 46.1627 23.8C46.1627 23.8533 46.16 23.912 46.1547 23.976C46.1547 24.0347 46.152 24.1013 46.1467 24.176H42.8507V23.608H45.3627C45.3467 23.272 45.2347 23.0107 45.0267 22.824C44.8187 22.632 44.56 22.536 44.2507 22.536C44.032 22.536 43.832 22.5867 43.6507 22.688C43.4694 22.784 43.3227 22.928 43.2107 23.12C43.104 23.3067 43.0507 23.544 43.0507 23.832V24.056C43.0507 24.3547 43.104 24.608 43.2107 24.816C43.3227 25.0187 43.4694 25.1733 43.6507 25.28C43.832 25.3813 44.0294 25.432 44.2427 25.432C44.4987 25.432 44.7094 25.376 44.8747 25.264C45.04 25.152 45.1627 25 45.2427 24.808H46.0427C45.9734 25.0533 45.856 25.2747 45.6907 25.472C45.5254 25.664 45.32 25.816 45.0747 25.928C44.8347 26.04 44.5574 26.096 44.2427 26.096ZM47.3715 26V21.968H48.0915L48.1395 22.656C48.2675 22.416 48.4488 22.2267 48.6835 22.088C48.9182 21.944 49.1875 21.872 49.4915 21.872C49.8115 21.872 50.0862 21.936 50.3155 22.064C50.5448 22.192 50.7235 22.3867 50.8515 22.648C50.9795 22.904 51.0435 23.2267 51.0435 23.616V26H50.2435V23.696C50.2435 23.3227 50.1608 23.04 49.9955 22.848C49.8302 22.656 49.5902 22.56 49.2755 22.56C49.0675 22.56 48.8808 22.6107 48.7155 22.712C48.5502 22.808 48.4168 22.952 48.3155 23.144C48.2195 23.336 48.1715 23.5707 48.1715 23.848V26H47.3715ZM54.0428 26C53.7921 26 53.5735 25.96 53.3868 25.88C53.2001 25.8 53.0561 25.6667 52.9548 25.48C52.8535 25.2933 52.8028 25.04 52.8028 24.72V22.648H52.1068V21.968H52.8028L52.8988 20.96H53.6028V21.968H54.7468V22.648H53.6028V24.728C53.6028 24.9573 53.6508 25.1147 53.7468 25.2C53.8428 25.28 54.0081 25.32 54.2428 25.32H54.7068V26H54.0428ZM57.285 26.096C56.9543 26.096 56.6797 26.04 56.461 25.928C56.2423 25.816 56.0797 25.6667 55.973 25.48C55.8663 25.288 55.813 25.0827 55.813 24.864C55.813 24.5973 55.8823 24.3707 56.021 24.184C56.1597 23.992 56.357 23.8453 56.613 23.744C56.869 23.6427 57.1757 23.592 57.533 23.592H58.581C58.581 23.3573 58.5463 23.1627 58.477 23.008C58.4077 22.8533 58.3037 22.7387 58.165 22.664C58.0317 22.584 57.861 22.544 57.653 22.544C57.413 22.544 57.2077 22.6027 57.037 22.72C56.8663 22.832 56.7597 23 56.717 23.224H55.917C55.949 22.9413 56.045 22.7013 56.205 22.504C56.3703 22.3013 56.581 22.1467 56.837 22.04C57.093 21.928 57.365 21.872 57.653 21.872C58.0317 21.872 58.349 21.9387 58.605 22.072C58.861 22.2053 59.053 22.3947 59.181 22.64C59.3143 22.88 59.381 23.168 59.381 23.504V26H58.685L58.621 25.32C58.5623 25.4267 58.493 25.528 58.413 25.624C58.333 25.72 58.237 25.8027 58.125 25.872C58.0183 25.9413 57.893 25.9947 57.749 26.032C57.6103 26.0747 57.4557 26.096 57.285 26.096ZM57.437 25.448C57.6077 25.448 57.7623 25.4133 57.901 25.344C58.0397 25.2747 58.157 25.1813 58.253 25.064C58.3543 24.9413 58.429 24.8053 58.477 24.656C58.5303 24.5013 58.5597 24.344 58.565 24.184V24.16H57.613C57.3837 24.16 57.197 24.1893 57.053 24.248C56.9143 24.3013 56.813 24.376 56.749 24.472C56.685 24.568 56.653 24.68 56.653 24.808C56.653 24.9413 56.6823 25.056 56.741 25.152C56.805 25.2427 56.8957 25.3147 57.013 25.368C57.1303 25.4213 57.2717 25.448 57.437 25.448ZM60.7221 26V20.24H61.5221V26H60.7221ZM67.8034 26.096C67.2541 26.096 66.7794 25.976 66.3794 25.736C65.9848 25.4907 65.6781 25.152 65.4594 24.72C65.2461 24.2827 65.1394 23.776 65.1394 23.2C65.1394 22.6293 65.2461 22.1253 65.4594 21.688C65.6781 21.2507 65.9848 20.912 66.3794 20.672C66.7794 20.4267 67.2541 20.304 67.8034 20.304C68.4594 20.304 68.9901 20.4613 69.3954 20.776C69.8061 21.0907 70.0674 21.5333 70.1794 22.104H69.2994C69.2194 21.7733 69.0541 21.5093 68.8034 21.312C68.5581 21.1147 68.2248 21.016 67.8034 21.016C67.4248 21.016 67.0968 21.104 66.8194 21.28C66.5421 21.456 66.3288 21.7067 66.1794 22.032C66.0301 22.3573 65.9554 22.7467 65.9554 23.2C65.9554 23.6533 66.0301 24.0453 66.1794 24.376C66.3288 24.7013 66.5421 24.952 66.8194 25.128C67.0968 25.2987 67.4248 25.384 67.8034 25.384C68.2248 25.384 68.5581 25.2907 68.8034 25.104C69.0541 24.912 69.2194 24.6533 69.2994 24.328H70.1794C70.0674 24.8827 69.8061 25.3173 69.3954 25.632C68.9901 25.9413 68.4594 26.096 67.8034 26.096ZM72.7525 26.096C72.4218 26.096 72.1472 26.04 71.9285 25.928C71.7098 25.816 71.5472 25.6667 71.4405 25.48C71.3338 25.288 71.2805 25.0827 71.2805 24.864C71.2805 24.5973 71.3498 24.3707 71.4885 24.184C71.6272 23.992 71.8245 23.8453 72.0805 23.744C72.3365 23.6427 72.6432 23.592 73.0005 23.592H74.0485C74.0485 23.3573 74.0138 23.1627 73.9445 23.008C73.8752 22.8533 73.7712 22.7387 73.6325 22.664C73.4992 22.584 73.3285 22.544 73.1205 22.544C72.8805 22.544 72.6752 22.6027 72.5045 22.72C72.3338 22.832 72.2272 23 72.1845 23.224H71.3845C71.4165 22.9413 71.5125 22.7013 71.6725 22.504C71.8378 22.3013 72.0485 22.1467 72.3045 22.04C72.5605 21.928 72.8325 21.872 73.1205 21.872C73.4992 21.872 73.8165 21.9387 74.0725 22.072C74.3285 22.2053 74.5205 22.3947 74.6485 22.64C74.7818 22.88 74.8485 23.168 74.8485 23.504V26H74.1525L74.0885 25.32C74.0298 25.4267 73.9605 25.528 73.8805 25.624C73.8005 25.72 73.7045 25.8027 73.5925 25.872C73.4858 25.9413 73.3605 25.9947 73.2165 26.032C73.0778 26.0747 72.9232 26.096 72.7525 26.096ZM72.9045 25.448C73.0752 25.448 73.2298 25.4133 73.3685 25.344C73.5072 25.2747 73.6245 25.1813 73.7205 25.064C73.8218 24.9413 73.8965 24.8053 73.9445 24.656C73.9978 24.5013 74.0272 24.344 74.0325 24.184V24.16H73.0805C72.8512 24.16 72.6645 24.1893 72.5205 24.248C72.3818 24.3013 72.2805 24.376 72.2165 24.472C72.1525 24.568 72.1205 24.68 72.1205 24.808C72.1205 24.9413 72.1498 25.056 72.2085 25.152C72.2725 25.2427 72.3632 25.3147 72.4805 25.368C72.5978 25.4213 72.7392 25.448 72.9045 25.448ZM76.1896 26V21.968H76.9096L76.9816 22.728C77.0723 22.5467 77.1896 22.3947 77.3336 22.272C77.4776 22.144 77.6456 22.0453 77.8376 21.976C78.035 21.9067 78.259 21.872 78.5096 21.872V22.72H78.2216C78.0563 22.72 77.899 22.7413 77.7496 22.784C77.6003 22.8213 77.467 22.888 77.3496 22.984C77.2376 23.08 77.1496 23.2107 77.0856 23.376C77.0216 23.5413 76.9896 23.7467 76.9896 23.992V26H76.1896ZM81.2633 26.096C80.8793 26.096 80.538 26.008 80.2393 25.832C79.9406 25.656 79.706 25.4107 79.5353 25.096C79.37 24.7813 79.2873 24.416 79.2873 24C79.2873 23.5733 79.37 23.2027 79.5353 22.888C79.706 22.568 79.9406 22.32 80.2393 22.144C80.538 21.9627 80.8846 21.872 81.2793 21.872C81.674 21.872 82.0126 21.96 82.2953 22.136C82.578 22.312 82.7966 22.5467 82.9513 22.84C83.106 23.128 83.1833 23.448 83.1833 23.8C83.1833 23.8533 83.1806 23.912 83.1753 23.976C83.1753 24.0347 83.1726 24.1013 83.1673 24.176H79.8713V23.608H82.3833C82.3673 23.272 82.2553 23.0107 82.0473 22.824C81.8393 22.632 81.5806 22.536 81.2713 22.536C81.0526 22.536 80.8526 22.5867 80.6713 22.688C80.49 22.784 80.3433 22.928 80.2313 23.12C80.1246 23.3067 80.0713 23.544 80.0713 23.832V24.056C80.0713 24.3547 80.1246 24.608 80.2313 24.816C80.3433 25.0187 80.49 25.1733 80.6713 25.28C80.8526 25.3813 81.05 25.432 81.2633 25.432C81.5193 25.432 81.73 25.376 81.8953 25.264C82.0606 25.152 82.1833 25 82.2633 24.808H83.0633C82.994 25.0533 82.8766 25.2747 82.7113 25.472C82.546 25.664 82.3406 25.816 82.0953 25.928C81.8553 26.04 81.578 26.096 81.2633 26.096ZM89.255 26.096C88.7057 26.096 88.231 25.976 87.831 25.736C87.4363 25.4907 87.1297 25.152 86.911 24.72C86.6977 24.2827 86.591 23.776 86.591 23.2C86.591 22.6293 86.6977 22.1253 86.911 21.688C87.1297 21.2507 87.4363 20.912 87.831 20.672C88.231 20.4267 88.7057 20.304 89.255 20.304C89.911 20.304 90.4417 20.4613 90.847 20.776C91.2577 21.0907 91.519 21.5333 91.631 22.104H90.751C90.671 21.7733 90.5057 21.5093 90.255 21.312C90.0097 21.1147 89.6763 21.016 89.255 21.016C88.8763 21.016 88.5483 21.104 88.271 21.28C87.9937 21.456 87.7803 21.7067 87.631 22.032C87.4817 22.3573 87.407 22.7467 87.407 23.2C87.407 23.6533 87.4817 24.0453 87.631 24.376C87.7803 24.7013 87.9937 24.952 88.271 25.128C88.5483 25.2987 88.8763 25.384 89.255 25.384C89.6763 25.384 90.0097 25.2907 90.255 25.104C90.5057 24.912 90.671 24.6533 90.751 24.328H91.631C91.519 24.8827 91.2577 25.3173 90.847 25.632C90.4417 25.9413 89.911 26.096 89.255 26.096ZM92.8681 26V20.24H93.6681V26H92.8681ZM95.1425 26V21.968H95.9425V26H95.1425ZM95.5505 21.208C95.3958 21.208 95.2678 21.16 95.1665 21.064C95.0705 20.968 95.0225 20.8453 95.0225 20.696C95.0225 20.552 95.0705 20.4347 95.1665 20.344C95.2678 20.248 95.3958 20.2 95.5505 20.2C95.6998 20.2 95.8252 20.248 95.9265 20.344C96.0278 20.4347 96.0785 20.552 96.0785 20.696C96.0785 20.8453 96.0278 20.968 95.9265 21.064C95.8252 21.16 95.6998 21.208 95.5505 21.208ZM97.4065 26V21.968H98.1265L98.1745 22.656C98.3025 22.416 98.4838 22.2267 98.7185 22.088C98.9532 21.944 99.2225 21.872 99.5265 21.872C99.8465 21.872 100.121 21.936 100.35 22.064C100.58 22.192 100.758 22.3867 100.886 22.648C101.014 22.904 101.078 23.2267 101.078 23.616V26H100.278V23.696C100.278 23.3227 100.196 23.04 100.03 22.848C99.8652 22.656 99.6252 22.56 99.3105 22.56C99.1025 22.56 98.9158 22.6107 98.7505 22.712C98.5852 22.808 98.4518 22.952 98.3505 23.144C98.2545 23.336 98.2065 23.5707 98.2065 23.848V26H97.4065ZM102.478 26V21.968H103.278V26H102.478ZM102.886 21.208C102.731 21.208 102.603 21.16 102.502 21.064C102.406 20.968 102.358 20.8453 102.358 20.696C102.358 20.552 102.406 20.4347 102.502 20.344C102.603 20.248 102.731 20.2 102.886 20.2C103.035 20.2 103.16 20.248 103.262 20.344C103.363 20.4347 103.414 20.552 103.414 20.696C103.414 20.8453 103.363 20.968 103.262 21.064C103.16 21.16 103.035 21.208 102.886 21.208ZM106.606 26.096C106.216 26.096 105.87 26.008 105.566 25.832C105.262 25.6507 105.022 25.4027 104.846 25.088C104.675 24.7733 104.59 24.408 104.59 23.992C104.59 23.5707 104.675 23.2027 104.846 22.888C105.022 22.568 105.262 22.32 105.566 22.144C105.87 21.9627 106.216 21.872 106.606 21.872C107.096 21.872 107.507 22 107.838 22.256C108.168 22.512 108.379 22.8587 108.47 23.296H107.638C107.584 23.0613 107.462 22.88 107.27 22.752C107.083 22.624 106.859 22.56 106.598 22.56C106.384 22.56 106.187 22.616 106.006 22.728C105.824 22.8347 105.678 22.9947 105.566 23.208C105.459 23.416 105.406 23.6747 105.406 23.984C105.406 24.2133 105.438 24.4187 105.502 24.6C105.566 24.776 105.651 24.9253 105.758 25.048C105.87 25.1707 105.998 25.264 106.142 25.328C106.286 25.3867 106.438 25.416 106.598 25.416C106.774 25.416 106.931 25.3893 107.07 25.336C107.214 25.2773 107.334 25.192 107.43 25.08C107.531 24.968 107.6 24.8347 107.638 24.68H108.47C108.379 25.1067 108.168 25.4507 107.838 25.712C107.507 25.968 107.096 26.096 106.606 26.096Z" fill="#5C85FF"/>
<defs>
<linearGradient id="paint0_linear_54_2258" x1="4.24235" y1="14.0001" x2="31.8451" y2="14.0001" gradientUnits="userSpaceOnUse">
<stop stop-color="#001C81"/>
<stop offset="1" stop-color="#3359DF"/>
</linearGradient>
<linearGradient id="paint1_linear_54_2258" x1="6.22206" y1="14.4942" x2="30.4176" y2="13.7688" gradientUnits="userSpaceOnUse">
<stop stop-color="#001C81"/>
<stop offset="1" stop-color="#3359DF"/>
</linearGradient>
<clipPath id="clip0_54_2258">
<rect width="28" height="28" fill="white"/>
</clipPath>
</defs>
</svg>
